<?xml version="1.0" encoding="utf-8"?>
<svg version="1.1" id="Layer_1" xmlns="http://www.w3.org/2000/svg" xmlns:xlink="http://www.w3.org/1999/xlink" x="0px" y="0px"
	 viewBox="0 0 504.2 226.1" style="enable-background:new 0 0 504.2 226.1;" xml:space="preserve">
<style type="text/css">
	.st0{fill:#8DFFC0;}
	.st1{fill:#FFE566;}
	.st2{fill:#1F74C9;}
	.st3{fill:#FFAE4D;}
</style>
<g>
	<g>
		<path class="st0" d="M454.7,225.9l-102.5-32.5c-7.8-2.5-12.1-10.8-9.6-18.5l31-97.8c2.5-7.8,10.8-12.1,18.5-9.6L494.6,100
			c7.8,2.5,12.1,10.8,9.6,18.5l-31,97.8C470.8,224.1,462.5,228.4,454.7,225.9z"/>
		<circle class="st1" cx="53.7" cy="172.4" r="53.7"/>
		<g>
			<g>
				<g>
					<path class="st2" d="M225,69v136.8c0,1-0.8,1.9-1.9,1.9h-28.5c-1,0-1.9-0.8-1.9-1.9V69c0-1,0.8-1.9,1.9-1.9h28.5
						C224.1,67.1,225,68,225,69z"/>
				</g>
			</g>
			<g>
				<g>
					<path class="st2" d="M361.2,69v136.8c0,1.1-0.8,1.9-1.9,1.9h-22c-0.6,0-1.2-0.3-1.5-0.8l-56.5-76.4c-0.4-0.5-0.8-0.4-1-0.3
						c-0.2,0.1-0.6,0.3-0.6,0.9v74.7c0,1.1-0.9,1.9-1.9,1.9h-28.5c-1.1,0-1.9-0.8-1.9-1.9V69c0-1.1,0.8-1.9,1.9-1.9h21.8
						c0.6,0,1.2,0.3,1.5,0.7l56.7,74.8c0.3,0.5,0.8,0.4,1,0.3c0.2-0.1,0.6-0.3,0.6-0.8V69c0-1.1,0.9-1.9,1.9-1.9h28.5
						C360.4,67.1,361.2,68,361.2,69z"/>
				</g>
			</g>
			<g>
				<g>
					<path class="st2" d="M456.8,153.7c4.5,5.1,6.8,11.5,6.8,18.9c0,6.4-1.7,12.1-5,16.8c-3.3,4.7-7.9,8.5-13.8,11.2
						c-5.8,2.7-12.7,4-20.5,4c-11,0-20.6-2.7-28.8-7.8c-8.2-5.2-13.9-12.4-16.8-21.3c-0.3-0.9,0.1-1.8,1-2.2l19.5-9.3
						c0.9-0.4,2,0,2.4,0.9c2.3,4.9,5.5,8.8,9.5,11.5c3.9,2.7,8.4,4.1,13.2,4.1c3.4,0,5.9-0.7,7.6-1.9c1.6-1.2,2.3-2.8,2.3-4.9
						c0-1-0.2-1.9-0.7-2.6c-0.6-0.8-1.5-1.5-2.6-2.2c-1.3-0.8-2.9-1.4-4.9-1.9l-16.5-4.6c-8.3-2.3-14.7-6.2-19.2-11.5
						c-4.5-5.4-6.8-11.8-6.8-19c0-6.4,1.7-12.1,4.9-16.8c3.3-4.7,7.9-8.5,13.7-11.2c5.8-2.7,12.5-4,19.9-4c9.8,0,18.5,2.3,25.9,6.9
						c7.5,4.7,12.8,11.2,15.9,19.6c0.3,0.9-0.1,1.9-0.9,2.3l-19.7,9.2c-0.5,0.2-1,0.2-1.5,0c-0.5-0.2-0.8-0.6-1-1.1
						c-1.3-3.7-3.6-6.5-7-8.7c-3.4-2.2-7.4-3.4-11.7-3.4c-3,0-5.4,0.6-7,1.8c-1.5,1.1-2.2,2.5-2.2,4.4c0,0.9,0.2,1.8,0.8,2.5
						c0.5,0.8,1.5,1.6,2.8,2.2c1.5,0.8,3.4,1.5,5.6,2.2l15.5,4.6C445.8,144.9,452.4,148.7,456.8,153.7z"/>
				</g>
			</g>
		</g>
		<g>
			<path class="st2" d="M114.8,97.2c14.1,0,26.6,7.3,33.8,18.4c0.6,1,1.8,1.3,2.9,0.8l25.2-12.1c1.2-0.6,1.6-2,1-3.1
				c-12.5-21.7-36-36.2-62.8-36.2l0,0c-41.6,0-75,35-72.4,77.1c2.2,35.5,30.6,64.6,66,67.6c29.4,2.5,55.6-12.6,69.1-35.9
				c0.6-1.1,0.2-2.6-1-3.1l-25.2-12.1c-1-0.5-2.2-0.1-2.9,0.8c-8,12.3-22.6,20-38.7,18.1c-18.3-2.2-33-17-35.1-35.3
				C72,117.8,91,97.2,114.8,97.2"/>
		</g>
		<path class="st3" d="M218.4,1.4l-34.7,29.4c-3.3,2.8-2.4,8.2,1.7,9.7l41.9,15.5c4.1,1.5,8.3-1.9,7.7-6.3l-7.1-45
			C227.1,0.4,221.8-1.5,218.4,1.4z"/>
	</g>
</g>
</svg>
